<svg width="261.6" height="146.54086169460862" viewBox="0 0 349.99999999999994 196.0600213804014" class="looka-1j8o68f"><defs id="SvgjsDefs1064"></defs><g id="SvgjsG1065" featurekey="e7LhAk-0" transform="matrix(1.9444444179534912,0,0,1.9444444179534912,87.5,-16.916666295793323)" fill="#000000"><polygon xmlns="http://www.w3.org/2000/svg" points="71,48.7 71,18.2 54.8,9 38.7,9 63,22.8 63,36.7 63,53.3 "></polygon><polygon xmlns="http://www.w3.org/2000/svg" points="29,66 54.8,81 54.7,81 55.1,81.3 71.7,71.7 79.7,57.8 55.3,72 29,56.8 "></polygon><polygon xmlns="http://www.w3.org/2000/svg" points="61.2,57 61.3,57 46.9,65.2 54.8,69.8 81,54.5 81,35.2 73,21.3 73,49.8 "></polygon><polygon xmlns="http://www.w3.org/2000/svg" points="61,23.9 34.8,8.7 18.2,18.3 10.2,32.3 35,18 47,25 46.8,25 61,33.2 "></polygon><polygon xmlns="http://www.w3.org/2000/svg" points="35.2,20.3 9,35.6 9,54.8 17,68.7 17,40.2 28.8,33.2 28.8,33.2 43.2,24.9 "></polygon><polygon xmlns="http://www.w3.org/2000/svg" points="19,41.3 19,71.8 35.2,81 51.4,81 27,67.2 27,53.3 27,36.7 "></polygon></g><g id="SvgjsG1066" featurekey="Qg0WB5-0" transform="matrix(2.5007143020629883,0,0,2.5007143020629883,0,146.04572921276275)" fill="#000000"><path d="M10.62 12.84 l0 -6.86 l4.68 0 l0 14.02 l-4.68 0 l-7.5 -8.68 l0 -2.4 l8.22 9.52 l2.4 0 l0 -10.9 l-1.56 0 l0 9.5 l-8.22 -9.5 l-2.4 0 l0 10.9 l1.56 0 l0 -4.72 l1.56 1.8 l0 4.48 l-4.68 0 l0 -14.02 l4.68 0 z M33.400000000000006 5.98 l0 4.68 l-10.62 0 l0 1.56 l7.88 0 l0 1.56 l-9.44 0 l0 -4.68 l10.62 0 l0 -1.56 l-12.18 0 l0 10.9 l12.18 0 l0 -1.56 l-10.62 0 l0 -1.56 l12.18 0 l0 4.68 l-15.3 0 l0 -14.02 l15.3 0 z M45.06 5.98 l5.66 0 l-4.84 7 l4.84 7.02 l-5.66 0 l-2.02 -2.92 l-2.02 2.92 l-5.66 0 l6.74 -9.76 l-1.86 -2.7 l-1.9 0 l1.86 2.7 l-0.94 1.36 l-3.9 -5.62 l5.68 0 l2.96 4.26 l-5.66 8.2 l1.86 0 l2.84 -4.1 l2.84 4.1 l1.88 0 l-3.78 -5.46 l3.76 -5.44 l-1.9 0 l-0.9 1.32 l-0.96 -1.38 z M53.519999999999996 10.66 l0 -4.68 l15.3 0 l0 4.68 l-3.76 0 l0 -1.56 l2.2 0 l0 -1.56 l-12.18 0 l0 1.56 l5.32 0 l-0.02 9.34 l1.56 0 l0 -9.34 l1.56 0 l0 10.9 l-4.68 0 l0 -9.34 l-5.3 0 z M86.92 5.98 l0 4.7 l-8.6 0 c-1.18 0.1 -2.08 1.12 -2.08 2.32 s0.9 2.18 2.08 2.32 l5.48 0 l0 1.56 l-5.48 0 c-2.02 -0.16 -3.62 -1.82 -3.62 -3.9 c0 -2 1.54 -3.7 3.54 -3.86 l7.12 0 l0 -1.58 l-7.04 0 l0 0.02 c-2.86 0.16 -5.14 2.52 -5.14 5.44 c0 2.9 2.28 5.28 5.14 5.44 l7.04 0 l0 -3.12 l1.56 0 l0 4.68 l-8.6 0 c-3.74 -0.16 -6.7 -3.24 -6.7 -7 c0 -3.78 2.96 -6.84 6.7 -7 z M100.34 10.66 l0 -4.68 l4.68 0 l0 14.02 l-4.68 0 l0 -4.66 l-9.06 0 l0 3.1 l1.56 0 l0 -1.56 l1.56 0 l0 3.12 l-4.68 0 l0 -6.24 l12.2 0 l0 4.68 l1.54 0 l0 -10.9 l-1.54 0 l0 4.68 l-9.08 0 l0 -4.68 l-1.56 0 l0 4.68 l-1.56 0 l0 -6.24 l4.68 0 l0 4.68 l5.94 0 z M117.69999999999999 15.32 l0.9 -1.56 l2.72 4.68 l1.8 0 c-0.4 -0.64 -4.2 -7.14 -4.52 -7.78 l-3.92 6.8 l-1.46 2.54 l-5.4 0 c0.3 -0.5 2.32 -4.02 4.26 -7.4 c1.14 -1.98 2.4 -4.2 3.82 -6.62 l1.8 0 l-3.72 6.44 l-3.46 6.02 l1.8 0 c2.46 -4.34 4 -6.9 6.28 -10.9 c0.14 0.24 7.18 12.44 7.22 12.46 l-5.4 0 z M124.66000000000001 10.66 l0 -4.68 l15.3 0 l0 4.68 l-3.76 0 l0 -1.56 l2.2 0 l0 -1.56 l-12.18 0 l0 1.56 l5.32 0 l-0.02 9.34 l1.56 0 l0 -9.34 l1.56 0 l0 10.9 l-4.68 0 l0 -9.34 l-5.3 0 z"></path></g></svg>